<?xml version="1.0" encoding="UTF-8"?>
<svg version="1.1" viewBox="0 0 2048 1365" width="1280" height="1280" xmlns="http://www.w3.org/2000/svg">
<path transform="translate(0)" d="m0 0h2048v1365h-2048z" fill="#70727F"/>
<path transform="translate(1515,227)" d="m0 0h2l-1 5-4 8-2 3h-2l-2 5-1 2h-2l-2 5-11 14-9 11h-2l-1 4-3 4h-2l-1 5h-2l-1 5-1 2h-2l1 11-3 5 6-2v-2l6-4 4-3h2l2-4h3l-1 6-5 9-3 8-8 16-6 11-4 10-8 21-9 14-12 17-5 6-4 7-2 3h-2v2h-2l-3 6h-2l-2 4-5 7-4 4h-2v2l-4 4h-2l-2 4-6 6h-2v3l-4 4h-2l-2 4-3 4-2 8 6-1 8-5 3 1v5l-3 1v3h-2l-1 5-10 17-4 6-4 7-3 3-4-1-5-1-6 3h-2v-7l1-3-12 5-10 11-3 4h-2v2l-6 5-7 8-11 13-7 10-3 9h5l-1 2-11 4-17 3-34 5-19 2h-11l-4-83-2-23-2-29-4-35v-4l-50 6-25 4-24 3-74 11 6 58 9 96 1 16-12 2-39 3-67 5-25 4-18 5-7 2-4 11v73l-1 27-3 26-1 6 33-6 17-3 16-3 8-2 25-7 22-5 33-11h2l-4 17-4 47-3 53-1 11 48 6 26 6 29 9 10 4 23 7 20 4 11 2 2-18 12-98 3-28 2-13 3-1 2 1 10 1h10l13-4 10-4 16-7 10-5 19-9 20-11 10-5 3-12 8-17 7-11 5-7 2-4 4-4 3-8 4-1 3 3v4l5-3h2l3-9-3-21-1-10v-19l1-11 1-9 2-15 4-13 9-17 8-10 9-12 13-15 8-9 9-11 7-9h2l2-5 5-6 14-20 16-23 3-5h2v-2h2l1-3h2v-3h2l1-5h2v-2l3-3h2l2-4 8-10 7-10 9-12 3-8h5v16l-3 23-5 31-6 26-7 30-7 31-4 15-1 7v15l4 13v2l6 3v-4l5 2 1 3v11l-4 23-9 35-4 17v19l10 16 5 13 3 16 4 28 8 76 5 49 4 28 4 17 8 27 1 11-1 5v10l5 7 5 5v4l-7 2-5 1-18-5-18-6v3l10 2 15 6 11 4 6 5v2h2l-1 5-2 2h-32l-23 1-16 2 11-1 58-1 1 2-48 2-19 4-35 3-1 1h-5v2h15l3 1v2l-21 5-43 7-47 5-42 3-33 3-25 2-15 2-12-1-11-3-26-13-5-3v-2l-4-1-15-9-10-5-6-2h-19l-8 3-12 10h-2v2l-5 4h-2v2l-12 6-16 4h-17l-14-5-12-7-11-5-15-5h-26l-31 8-12 4-21 5-49 12-23 6-14 4-37 8-21 5-50 10-11 2h-10l-1-7 5-4 4-1v-3h4l1-8-2-4v-5l4-4 2-11-3-6-1-5-5-3-5-5v-2l-6-2-4-7-4-2-2-4-2-7-2-5-1-7-2-4h-2l-6-10-3-2-3-7-5 1-3 1-4-2-4-5-5-2-8-6v-2l-3-1-1-4-6-4-1-3-4-2-4-6-5-5v-2l-5-1-2-2v-23l-2-12-3-17-1-5-2-11-5-20 3-8 13-3h17l29 3 5 2-1-3-19-3h-27l-30 4h-12l-18-5-10-4-10-2-12-6-7-7-6-8-2-4-4-3v-13l5-17 4-8 1-12 2-4v-13l-1-10v-22l-6-18-1-5v-10l7-25 5-14 2-6v-12l3-24 7-22 3-1v2h3v2l8 1 1 3 3-1 5 3h14v3l-11 7v4l9 2h9l15-3 7-3 7-6 7-2 4-5 5-5 10-5 9-2 1-2 14-5 11-4 4-5 3-5 5-5h2l1-5h2l2-4 1-3h2v-8l3-5 2-4 2-9 3-2 3-9 2-5-3-5-3-2 1-4 5-4 3-3 4-3 7-3 3-5 1-2h2l2-4 10-5 1-6h2l-1-4-14 1-7 1h-8l1-2 18-5 29-7 19-6 16-8 9-4 11-4 5-1h16l41 2h23l51-8 46-6 24-3 48-11 33-8 12-3 51-11 39-9 43-11 72-15 27-7 26-6 33-8 16-4 21-5 16-4 49-12 24-7z" fill="#DAD8DE"/>
<path transform="translate(1172,433)" d="m0 0h10l3 19 3 31 1 18 2 23 3 59v24l37-4 40-6 10-3 24-11h2l1-3 7-3 10-6h4l-2 19-2 29-1 37h2v11l-2 6-9 14-9 17-3 9-2 7-5 3-7 3-20 11-17 8-16 8-19 7-7 3-7 2h-10l-10-1-4-1-3 20-4 38-10 81-3 18-11-1-12-2-21-6-19-6-7-3-31-9-24-5-40-5-2-1v-11l3-53 4-47 3-12 2-5-22 8-17 5-29 7-16 5-18 3-13 3-37 6h-4l1-12 2-20 1-27v-73l4-11 2-2 17-4 12-3 20-3 51-4 45-3 22-2-4-38-9-95-4-37 7-2 82-12 14-2 52-7z" fill="#70727F"/>
<path transform="translate(1745)" d="m0 0h303v391l-3 5-2 6-6 1-2-1-2-13v-8l-1-5h-2l-2-4 1-5-6-9 1-5h3l2-1v-2l-4-2-2-5v-6l-3-5 3-9 1-6v-3l-1-3 3-1 4 1v-2h2v-2h-2l-1-3-7 3v-14l-4-6 2-5-4-3 1-7-1-2h2l-1-5-3-1 1-5-1-6-2-2v-3l1-8-2-6-4-1v-8l-2-2-1-6-2 2 1 2-5-1-1-6-4-1v-4h-6l-3-4v-2l-9-3h-5l-1-4 2-1-4-2-1-7-4-4-5 1-2 1v-4h-2l-2-7-8-1-3-4 4-2-1-2-8-7-5-3h-3-1v-5h4l1-2 2 1-3-4-5 1h-8l-3-2v-3h5l2-1 3 1-1-6-2-2-9-2-5 1-2-1v-5l2-1h-3l-2 1-1 4-4 1v-2h-2l2-6h2v-2l-4-1h-3l-5-1-4 4-1-2h2v-2l-3-1 2-1 1-6 1-2-3 2h-9l-2-4-6-2 3-2h2l-1-5-2 1v-2h-3v2l-4 1-3-2-3 1-2 2-4-4-4-1-1 2-5 3-5-1v-6l-3 1-3-1-4 1v-4l-2-5-1-1v3l-4-1-2-5 2-1v-4l-4 1-1 2h-2l-1 2-3-4v-7h-8v-2l1-1-2-3-2 1-1-3h-3l1-3-6-1-1-2-9-2-1-2h2l1-10h-8l-5-6-7-1-3-3-3-5-5-1-2-7-1-3-4-2v-3h4v-2h3l-3-7z" fill="#595D67"/>
<path transform="translate(1587,23)" d="m0 0 8 1 1 1v56h3v3l-4 1 1 3 1 31 2 12v12h22l-1 4-3 3-3 15-1 8-1 21 1 41v26l-2 33-5 45-4 28-1 14-1 2h-2v-37l1-101 2-6v-3l-1-2v-9l2-2v-18l1-23-2-15-4-17-1-8v-15h-2l-2 14 4 11 3 25-1 79-1 35-1 105-3 1 3 4-1 9h-2v2h2v2h2v166l2 10 2 115 2 50 2 34 1 31v47l-4 61-1 26v18l2 24 5 22 4 10 4 5v4l-15-2 2 8-3-1-1-8-9-1-2-2-3 3v10l2-9 7 1 4 9 2 5h-4v3l-5-1-2-4h-2l3 7 1 5 1 25-1 2v16l1 2 1 16h4v25l-1 27v93l2 70v29h-25l-1-197-1-61v-21l2-18 4-3h2l-2-6v-10h-6l1-11 5-2-1-5-5-3v-19l-1-2-2-57-1-179v-29l1-61 3-109 1-26 2-128 1-28-1-2v-86l1-36v-107l3-3 4-2v-3l-2 2h-3l-1-2v-11l1-15v-15l-3-4 2-6 2-4 1-19 2-17 2-36z" fill="#DAD8DE"/>
<path transform="translate(1586,19)" d="m0 0h2v2h6v2l-12 2-1 16-1 5v20l-1 7-7 2-1 33v17l1 29 1 3-1 3v120l-1 10v98l2 2-1 16-2 4v48l-1 46-1 49 1 5-1 8v67l-2 71-1 166v116l-4 1-1-1v-407l2-89 1-82-2 1-2 13-3 1-2 5h-2v2l-2 1-3 5-7 6h-3l-2-4v-7l-2-7 1-4h2l-1-7-1-2 1-3h2v-2h2l-2-5 1-12 1-7 2-2-1-9 2-5-2-9-2-3v-8l1-7-3-6-1-4-3-7v-4h-2l-4-10-8-7 1-10-1-3h-2l-1-4 1-14-2-8-6-1h-4l-2 5-7 2h-3l1-4 8-10 2-4h2l2-5 1-2h2l6-12 1-5 28-10 16-6 1-12 1-49 1-97v-21l2-5z" fill="#4A4D56"/>
<path transform="translate(1325,571)" d="m0 0h4l-2 19-2 29-1 37h2v11l-2 6-9 14-9 17-3 9-2 7-5 3-7 3-20 11-17 8-16 8-19 7-7 3-10 1v-3l6-7 3-1 4-8 5-12h2l2-8h2l1-4 6-16 3-3 4-11 2-19 1-3v-7l-4-17-3-6-1-8 2-5h7l2 2 1 10v4l5-1 4-9 3-1 2-5 3-3 2-5v-4h3l1-5h-7l-6 3h-11l-1-4h-5-3-13l-22 1v-1l16-2h8v-2l47-7 10-3 24-11h2l1-3 7-3z" fill="#4B4E57"/>
<path transform="translate(690,398)" d="m0 0 4 1-13 4 28-2 2 2-1 3h-2l1 3-2 4-10 5-2 3h-2l-2 6-5 4-10 4-1 3-5 4v3l5 5 1 3-3 5-3 9-3 1-2 12-3 3-2 11h-2l-1 4-2 3h-2l-1 5h-2l-2 4-4 4-3 5h-2l-1 3-14 5-11 4-12 5-8 4-5 5-4 5-8 3-9 7-12 3-10 1-11-1-5-2v-4l10-7h2v-3l-14 1-6-3h-2l-1-2-8-2v-2h-3v-2l-2 1-7 22h-1l1-9 9-26 4-1 2 3h5l2-10 6-8 5-5 9-10 4-6 6-6 4-1 14 4 9 1 8 2 2-5 5-4 12 1 6 3 1 21-3 6v2l4-2 5-5 4-3 1-15 3-12 3-4h2l2-5 2-4h2l2-11 3-11-1-6 8-5 7 3 5 2h2v-13l1-3h2l-2-8-5-2 3-3 25-6z" fill="#A8A9B5"/>
<path transform="translate(0)" d="m0 0h149l1 3-7 3-5 2v2l-3-1v-3l-4 2-1 4-4 1-2-2h-3l1 5-4 1-4-1h-2l1 3-6 2-4 5v3l-6 2v1l4 1h3l1 4-7 3h-3-3v8l-1 3 2 1 1 4-2 2-3-1-2-3-4 1-1 4 1 5-4 2-1-3-3-1-5 2-1 6-6 6-7 1h-5l-1 4 3 1-1 4-2 2-2 1-1 3h-5l-3 1-1 2-2-1 2 5-1 2-4 1-3 2-3 7-2 3-1 3h-2l-1 2-2 2v4l-4 4-4-9-4-1-2 2v2 3l-5 2z" fill="#595D67"/>
<path transform="translate(1502,346)" d="m0 0 7 1-4 2-3 9-11 14-6 8-7 9-2 3h-2l-1 3h-2v2h-2l-1 5h-2v3l-3 3h-2v2h-2l-2 5-28 40-6 8-4 6-5 5-9 11-11 13-10 11-20 26-9 17-4 13-2 15-1 9-1 11v19l3 25 1 6-4 9-5 3h-2l-1-6h-5l-4 10-5 3 1-13h-2v-37l3-40 2-8-7 3-10 6-4 1-3 3-18 8-5-1v-5l7-11 9-11 10-11 6-7h2v-2l5-5 10-11 10-4h2l-1 10 8-4 5 1 4 1 5-6 4-8 8-13 5-10h2v-3l2-1 1-5-4 1-10 5-4-1 3-9 5-7h2l2-4h2v-3l8-7 6-7h2v-2l6-5 4-6 3-4h2l3-6h2v-2h2l2-4 5-8 13-18 10-15 4-10 1 4-4 10-7 10-8 14-6 13-7 15-2 5-18 32-1 4h2l2-5 16-20 9-12 9-13 10-15 11-16 10-13 5-7h2l2-5 13-17 8-11z" fill="#A9AAB6"/>
<path transform="translate(1525,226)" d="m0 0h8l10 3v2l5 2 2 2 1 4 8 4v2h2l1 9v38l1 7v109l-2 1-2 13-3 1-2 5h-2v2l-2 1-3 5-7 6h-3l-2-4v-7l-2-7 1-4h2l-1-7-1-2 1-3h2v-2h2l-2-5 1-12 1-7 2-2-1-9 2-5-2-9-2-3v-8l1-7-3-6-1-4-3-7v-4h-2l-4-10-8-7 1-10-1-3h-2l-1-4 1-14-2-8-6-1h-4l-2 5-7 2h-3l1-4 8-10 2-4h2l2-5 1-2h2l8-16 1 2h2v-2z" fill="#595D67"/>
<path transform="translate(1351,887)" d="m0 0h2l5 14 8 11 11 11 10 7 7 5 15 6 17 5 12 2 8 3 5 5 3 9 4 8 11 1 3 5 4 8-1 3-5-5-3-4-5-1-8-1-10-3v-2l-6-1-13-6-8-2-30-5-5-1-4 1-5-3-8-3-10-8-5-6-5-8-5-14v-7l5-3h2v-11z" fill="#A8A9B5"/>
<path transform="translate(953,1016)" d="m0 0 3 1 8-1 16 3 10 4 2 2 10 4 16 10v3h2v2l9 1 1 4h7l10 2-1 2-4 1-3 3h-23l-5-3-3-2-3 3-3-1-2-5h-8l-5 1-10-2h-2l-2 2h-3v-3l-5 1-4 2-10 1-1-3-7-2-6 2v2h-4v-2h-2v2l-3 3-4 1-7-1-1-3-5 2-4-1-5 2-10 1-4-2h-2v-3h-2v-2h-2l2-4 12-4 12-3 9-5 10-3 10-4z" fill="#8B8E9A"/>
<path transform="translate(1172,433)" d="m0 0h10l3 19 3 31 1 18 1 7v31h-1l-2-19-2-7-3-6-2-15-2-5-1-3-6 1-2 1-1 3-9 1-5-1-5 1-5-6-1-3-8-4-5-6 4-3 2-5-1-4-1-5-4-4h-16l-7-1h-6l-5-2-13 1 1-2h5v-2l18-2 25-4z" fill="#5B5E69"/>
<path transform="translate(1565,1052)" d="m0 0 3 1 2 9-1 9v73l2 70v151h-9l-1-42-2-137v-117l3-6 1-9z" fill="#4A4D56"/>
<path transform="translate(1204,778)" d="m0 0h3v2l3 1 2 5 1 2 3 1v2h2l4 7v4h2l9 18-1 10-3 7-4 18-2 7-3 8-3 16-5 11-6 12-4-2-1-3-3-34 1-9-3-33v-29l-3-5 1-6 3-5 5-2z" fill="#A9AAB6"/>
<path transform="translate(584,911)" d="m0 0h3l7 8 4 6 7 6 3 2 1 4 2 1v2l4 2 5 4 5 2 4 5 5 1 2-2 5 1 2 4v3l4 2 5 8v2h2l4 6v6l3 5 2 10 5 2 4 7 5 2 5 5v2l5 2 5 12-2 11-4 4v5l2 4v5l-2 3h-4v3l-6 2-1 3h-2l1 5h-3v4l-3 2-15 2-9 1-1-4 1-1h7l2-4 8-6 2-7-2-12-3-5 1-7h2l2-6-1-9-4-13-6-4-3-8-3-10-5-10v-4l-4-2-5-8-7-5v-2l-5-2-17-16-7-9-7-10z" fill="#A8A9B5"/>
<path transform="translate(1489,246)" d="m0 0h5l3 5 1 2 3 2-11 14-8 10-1-3-5 2-8 7-10 4-7 1-3 2-7 2-8 4-11 2h-14l-2-5-1-6-4-6 1-8 5-2 6-3 10-6 12-3 24-8 11-2 12-4z" fill="#A8A9B5"/>
<path transform="translate(1353,542)" d="m0 0 4 1-1 7-4 11-3 18v7l-1 3-1 11v19l3 25 1 6-4 9-5 3h-2l-1-6h-5l-4 10-5 3 1-13h-2v-37l3-40 2-8-7 3-10 6-4 1-3 3-4-1-11 5-3 2-3-1 3-6 6-5 3-6 11-5 10-4 2 2v4l10-5 6-2 4-6 5-8 5-5z" fill="#8B8E9A"/>
<path transform="translate(1596,138)" d="m0 0 1 3h2v2h22l-1 4-3 3-3 15-1 8-1 21 1 41v26l-2 33-5 45-4 28-1 14-1 2h-2v-37l1-101 2-6v-3l-1-2v-9l2-2v-18l1-23-2-15-4-17z" fill="#DAD8DE"/>
<path transform="translate(1562,490)" d="m0 0h1v66l-1 32-1 11 2-1 2-17 2-28 2 3-1 10v67l-2 71-1 166v116l-4 1-1-1v-407z" fill="#595D67"/>
<path transform="translate(665,404)" d="m0 0h5l-4 4h11l2 1-1 6-8 5h-2v5l-2 3v8l-2 4h-8l-4 6 1 11-4 12-2 3-1 7-5 6h-2l-1 11-6 8-8 11-5 4-16 6-6 1-10 1h-10l-4-2v-6l3-3 15-2 13-4 5-3-2 5 4-1 5-4 5-5 1-15 3-12 3-4h2l2-5 2-4h2l2-11 3-11-1-6 8-5 7 3 5 2h2v-13l1-3h2l-2-8-5-2 3-3z" fill="#8B8E9A"/>
<path transform="translate(1582,24)" d="m0 0h1v15l-2 33-1 5-1 19-4 8 2 5 1 1v15l-1 15v13l6-3-1 5-6 4v107l-1 36v86l1 7-1 23-2 128-2 62-2 73-1 61h-1v-63l3-116 2-107 1-42v-19l-2-6-1-1v-100l1-8v-120l1-5-1-3-1-30v-25l1-20 3-3 5-1v-27l1-7 1-14z" fill="#828491"/>
<path transform="translate(1271,597)" d="m0 0 4 1-1 4 1 8-2 8-6 12-3 7-3 6h-2v3h-2v5l-2 1-7 15-2 10-2 4-1 9-7 21-6 15-5 7-4 11-1 3h-2v9l-1 2-7 2h6l-3 2-7 2h-6v-3l6-7 3-1 4-8 5-12h2l2-8h2l1-4 6-16 3-3 4-11 2-19 1-3v-7l-4-17-3-6-1-8 2-5h7l2 2 1 10v4l5-1 4-9 3-1 2-5 3-3 2-5v-4h3l1-5h-7l-6 3h-11l-1-4h-5-3-13l-22 1v-1l16-2h8v-2z" fill="#5A5E68"/>
<path transform="translate(1289,729)" d="m0 0h3l-1 5-11 9-1 9-3 5h-2l-2 5-3 4h-2l-2 4-7 10-2 3h-2l-2 4h-2v2l-5 3-4-1-4-12-3-5-5-4-8-1-10 2-4 1v-2l4-4 8-3 14-6 4-3 10-4 7-5 8-2 5-5 5-2 5-1z" fill="#A8A9B5"/>
<path transform="translate(1381,933)" d="m0 0 6 1 13 6 20 7 10 2 13 2 5 5 2 5h2l6 12 11 1 3 5 4 8-1 3-5-5-3-4-5-1-8-1-10-3v-2l-6-1-5-4-10-4-30-7-11-7-3-3-2-7z" fill="#70727F"/>
<path transform="translate(1454,374)" d="m0 0 1 4-4 10-7 10-5 8-3 3-8 16-5 11-14 27-8 14-6 11-9 12-2 3h-2l-2 4-10 14-3 5h-2l1-5 9-14 6-12h2v-3l2-1 1-5-4 1-10 5-4-1 3-9 5-7h2l2-4h2v-3l8-7 6-7h2v-2l6-5 4-6 3-4h2l3-6h2v-2h2l2-4 5-8 13-18 10-15z" fill="#A9AAB6"/>
<path transform="translate(503,808)" d="m0 0 5 5 4 2 10 1 7-2 2-3-1-2 6 1 27 2-2 1-1 6h-2l-2 7 2 8-2 1-1 12 5 15 3 4 2 8 5 10-1 4-3-4-7-14-10-14-11-13-10-9-5-4-11-9-7-8z" fill="#585C66"/>
<path transform="translate(592,479)" d="m0 0 12 1 6 3 1 18-2 1-1-4-7-3h-8l-8-2-5 1-5 2-2 7h-6l-5 4-4-1-3-3-7-3-1-2-7-1-4 7h-2l-2 8-2 3-4 2-1 2 6 1 6-2h7l1 4-7 4h-3l-1 5-4 1-3-3v-2l-6 2-4 4-5-1-2-2-2-6 4 1 1 2h5l2-10 6-8 5-5 9-10 4-6 6-6 4-1 14 4 9 1 8 2 2-5z" fill="#8C8F9B"/>
<path transform="translate(1565,1052)" d="m0 0 3 1 2 9-1 9v73l2 70v151l-3-1 1-2-1-38v-49l-1-22-1-17 1-8 1-6-1-3v-65l-1-3-3-3-2-10v-10h-2v-59l3-6 1-9z" fill="#595D67"/>
<path transform="translate(1502,346)" d="m0 0 7 1-4 2-3 9-11 14-6 8-7 9-2 3h-2l-1 3h-2v2h-2l-1 5h-2v3l-3 3h-2v2h-2l-2 5-28 40-6 8-4 6-5 5-9 11-11 13-10 11-5 6-5 5-7 8v-3l9-14 6-8 4-4 10-14 8-16 8-14 11-20 7-17 7-12 1 2-8 17-7 15-2 5-18 32-1 4h2l2-5 16-20 9-12 9-13 10-15 11-16 10-13 5-7h2l2-5 13-17 8-11z" fill="#8C8F9B"/>
<path transform="translate(587,916)" d="m0 0 5 5 4 6v2h2l5 7 5 5 9 8 5 5 8 5 5 3 3 3v2h2v2l4 1v2h2l3 5 1 8 4 6 1 9 1 4 4 2 6 4 2 6 4 6 2 11v12l1 9-1 6-5 7-2 1-3 7h-6l-1 5h-6l2-4 8-6 2-7-2-12-3-5 1-7h2l2-6-1-9-4-13-6-4-3-8-3-10-5-10v-4l-4-2-5-8-7-5v-2l-5-2-17-16-7-9-7-10z" fill="#8C8F9B"/>
<path transform="translate(570,422)" d="m0 0h6l-1 4-8 4-2 4-2 1-4 8-4 6-7 8-5 6-4 4-1 16v10l-8 11-5 4-4-4-2-3-9 1-1-3 5-5 9-5 7-1-3-8 2-11 1-2h2l1-5 3-5 8-2 1-5-5-1-1-4 5-3v-12l6 1 1-3 16-5z" fill="#595D67"/>
<path transform="translate(1564,765)" d="m0 0h1v221l-4 1-1-1v-145l1-72z" fill="#585C66"/>
<path transform="translate(1570,77)" d="m0 0h1v48l1 29 1 3-1 3v120l-1 10v90l-1 8-2-4-1-36v-61l1-13 1-18-1-22-1-19 1-15v-114l1-8z" fill="#595D67"/>
<path transform="translate(2024)" d="m0 0h24v45l-5 3-5-1-1-7h-6l-2-4 2-6-4-10-3-6h2l-3-3 1-7v-3z" fill="#4A4D56"/>
<path transform="translate(1351,557)" d="m0 0 1 4-3 18v7l-1 3-1 11v19l3 25 1 6-4 9-5 3h-2l-1-6h-5l-4 10-5 3v-40l1-5 4 1 1 5 1 19 8 2 2 6 4-1 1-6-2-11-4-21-6-5-1-13v-5l7-6 3-11 5-16z" fill="#A9AAB6"/>
<path transform="translate(1205,793)" d="m0 0h3l3 11 5 21 1 3v23l-2 9-5 10-4-1-2-23-3-16v-26l2-9z" fill="#8C8F9B"/>
<path transform="translate(1595,1173)" d="m0 0 5 3 1 2 1 13 1 7v20l-2 20 1 21v23l-1 5-1 7-3 1-1 3-1-32z" fill="#8C8F9B"/>
<path transform="translate(1613,62)" d="m0 0 9 2 3 3v2h-4v-2h-9l-7 3-3 2-1 3 2 1h-2l1 6-1 3 2 1v5h13l4-2 1-4 3-6h2l-1 6-4 7h-2l-1 3h-2l-1 3h-2l-1-5h-2l1 13v18l6 2v2h2l1 8h-2l-4-9-8 2-1-36h-2v28l-1 3h-5l-1-5-1-34 4-1v-3l-4 1 1-9 5-5 5-4z" fill="#4D505A"/>
<path transform="translate(1594,127)" d="m0 0h2l2 23 5 22 1 18-1 22v13h-2v9l2 3-1 3h-1l-1 5-1 101h-1l-1-20h-1v-35l1-35 1-79-3-25-4-11z" fill="#A7A8B4"/>
<path transform="translate(1597,783)" d="m0 0h1l1 17v105l-8 94-1 16-1 4h-2l2-29 2-32 2-31 2-33 1-110z" fill="#595C66"/>
<path transform="translate(1502,346)" d="m0 0 7 1-4 2-3 9-11 14-6 8-7 9-2 3h-2l-1 3h-2v2h-2l-1 5h-2v3l-3 3h-2v2h-2l-2 5-28 40-6 8-4 6-5 5-9 11-11 13-10 11-5 6v-3l7-9h2l2-4 7-8 9-11 9-12 9-10 10-15 13-20 8-12 13-18 12-14 9-12 12-18z" fill="#A8A9B5"/>
<path transform="translate(1460,954)" d="m0 0 10 2 32 9 32 12-5 4-9-1-31-10v2l-6-1-19-7-3-4z" fill="#A9AAB6"/>
<path transform="translate(1282,313)" d="m0 0 5 3 1 5-3 7-3 3-1 4-3 3-3 6-1 12-3 1-5-9-6-8-1-5 5-6 3-5 5-4 6-3z" fill="#A9AAB6"/>
<path transform="translate(587,807)" d="m0 0h27l19 3 1 4-23-3-11-1h-17l-13 3-2 8 2 7 2 9 3 11v7l2 7 2 11 2 12v18l-1 5h-1l-3-25-1-1-3-20-3-9-4-25-2-7 1-7 2-2-1-2z" fill="#A4A6B2"/>
<path transform="translate(1607,1081)" d="m0 0h8l3 3 1 9 2 1-5 9-6 4h-9l-5-3-4-6-2-2 1-3 5-2 1-5z" fill="#70727F"/>
<path transform="translate(1368,922)" d="m0 0 5 1 13 8 4 4-9-2-2 5-1 5 3 6 10 7 7 2v1l-9-1-5-4-7-4-4-8-3-4v-2l-4-1v7l3 5v4l-5-2-9-7-4-6-2-2v-5l3-2 6 2 7-1 2-5z" fill="#8C8F9B"/>
<path transform="translate(1569,1131)" d="m0 0h1l1 13v24h2v197h-2l-1-158-2-63v-12z" fill="#7E808D"/>
<path transform="translate(1567,771)" d="m0 0h1l1 179 2 57 1 7v14l6 4-1 4-2-1v-2l-4-1-2-4v-19l-1-11-2-48v-99z" fill="#9EA0AC"/>
<path transform="translate(1060,750)" d="m0 0h10l2 9-3 2-7 2-5 3-8 2-12-1-8 1 2-6 7-4h11l6-3z" fill="#8C8F9B"/>
<path transform="translate(1386,616)" d="m0 0 1 2-8 12-12 14-9 11-10 10-4 5h-2l-2 4-6 7-8 7-8 8-3 1 1-5 9-11 5-4 7-8 3-3h2l2-4 8-6 5-5 9-11 11-14z" fill="#A9AAB6"/>
<path transform="translate(1587,1048)" d="m0 0h2l5 5 3 5-1 19-1 3 12-5 9 2 4 4v8h-2l-2-6-1-1h-8l-10 5-1 4-3 2h-3v-6l1-5-1-22-3-9z" fill="#4E515A"/>
<path transform="translate(1326,624)" d="m0 0 4 1 1 5 1 19 8 2 2 6 6-2-1 4-5 3h-2l-1-6h-5l-4 10-5 3v-40z" fill="#A8A9B5"/>
<path transform="translate(1571,389)" d="m0 0 2 1-1 16-2 4v48l-1 46-1 47h-1l-1-9v-57l1-18v-40l2-32 2-1z" fill="#595D67"/>
<path transform="translate(1596,1179)" d="m0 0 3 3 1 11v38l-2 6 1 1 1 8v12l-1 8-2 1-1-2z" fill="#70727F"/>
<path transform="translate(1564,765)" d="m0 0h1v67l-1 10-2 2-1-7v-68z" fill="#4A4D56"/>
<path transform="translate(1555,974)" d="m0 0h1l1 7v11l-1 8h-25v-3l10-2 2-4h2v-2h2l3-9h2v-2l2-1z" fill="#595D67"/>
<path transform="translate(1624,79)" d="m0 0h2l-1 6-4 7h-2l-1 3h-2l-1 3h-2l-1-5h-2l1 13v18l6 2v2h2l1 8h-2l-4-9-8 2-1-38h11l4-2 1-4z" fill="#4B4E57"/>
<path transform="translate(1336,619)" d="m0 0h2l4 11 2 11v7 3 3l-4-2-7-6v-22z" fill="#70727F"/>
<path transform="translate(1314,564)" d="m0 0 1 2-3 4-4 2-1 4h3l1 3-6 5-4-1-11 5-3 2-3-1 3-6 6-5 3-6 11-5z" fill="#8B8E9A"/>
<path transform="translate(641,1086)" d="m0 0 9 1 2 3-1 5-10 3-17 3h-7l1-4 7-3 2-6 5 1 3 4 6-2z" fill="#595D67"/>
<path transform="translate(1593,639)" d="m0 0h1l1 56v19l2 37 1 15v17l-2 1-2-24-1-26z" fill="#A9AAB6"/>
<path transform="translate(1597,1310)" d="m0 0h2l-1 25 4 2 3 12 1 5 1 8 1 3h-10l-1-29z" fill="#767885"/>
<path transform="translate(1597,783)" d="m0 0h1l1 17v54h-1l-1 36h-1v-106z" fill="#878996"/>
<path transform="translate(1594,1053)" d="m0 0h7l3 13 6 7-4 4-8 3h-3v-11l1-11z" fill="#757784"/>
<path transform="translate(1587,1027)" d="m0 0 2 4 7 2 3 1 4 14 4 16 2 5h-3l-3-3-2-8v-5l-5 1-2-6 5 2-2-5-3-8-7-2-1 10-2-1v-10l3-1z" fill="#5C5F6A"/>
<path transform="translate(1487,556)" d="m0 0 4 2h-2l-1 9-5 12-8 13-2 1 2-11 2-3 2-10 3-12 5 3z" fill="#A8A9B5"/>
<path transform="translate(1594,127)" d="m0 0h2l2 23 5 22v14l-3-3-4-20-2-15-3-9z" fill="#5B5D68"/>
<path transform="translate(1593,927)" d="m0 0 3 3v12l-5 57-1 16-1 4h-2l2-29 2-32z" fill="#828491"/>
<path transform="translate(520,490)" d="m0 0h6l2 3-2 8h2v5l-4 2-5-7-9 1-1-3 5-5z" fill="#4E515B"/>
<path transform="translate(1467,898)" d="m0 0 4 1 9 8 4 3v2h2l3 5v3l-4-1v-2l-9-3-8-6v-5h-2z" fill="#A9AAB6"/>
<path transform="translate(1327,579)" d="m0 0h1l1 10 3 1-1 17-2 4h-2l-1 12-1 33h-1v-37z" fill="#737582"/>
<path transform="translate(1595,1249)" d="m0 0h1l1 16 1 1 1-8 3-1v25l-1 5-1 7-3 1-1 3-1-32z" fill="#8F929E"/>
<path transform="translate(1436,442)" d="m0 0v3l-9 13-8 11-5 5-9 11-11 13-10 11-5 6v-3l7-9h2l2-4 7-8 9-11 9-12 9-10 8-12z" fill="#A9AAB6"/>
<path transform="translate(1596,25)" d="m0 0 2 1 4 42-4 5h-2z" fill="#A9AAB6"/>
<path transform="translate(1587,1048)" d="m0 0h2l5 5 3 5-1 19-1 3 3 1-6 4-1-3-1-22-3-9z" fill="#5B5F69"/>
<path transform="translate(1587,1035)" d="m0 0 7 1 4 9 2 5h-4v3l-5-1-2-4-3 1-1-4z" fill="#D2D1D8"/>
<path transform="translate(477,775)" d="m0 0 4 1 5 8 9 10 7 4 5 2v3l-6 1-8-7-10-9-5-6z" fill="#50535C"/>
<path transform="translate(737,1264)" d="m0 0 6 4 1 2 4 1 1-4h2v-2h5v2l-4 1 2 4h2l-1 3-2 2-4-1h-7l-6 3 1-4 1-3h-4l1-5z" fill="#8A8D99"/>
<path transform="translate(1406,451)" d="m0 0h3l-1 7-7 11-4 8-4 1 1-7 4-10 5-8z" fill="#DBD9DF"/>
<path transform="translate(1621,1092)" d="m0 0h2l-1 8-4 6-6 4h-10l-8-1-4-6v-6l3 1 5 7 3 1h9l6-4z" fill="#4B4E58"/>
<path transform="translate(587,807)" d="m0 0h27l19 3 1 4-23-3-11-1h-17l-8 1-3-2z" fill="#9E9FAB"/>
<path transform="translate(2046,362)" d="m0 0h2v24l-3-1 1-7-9-2-2-4 2-5h6l2-4z" fill="#6D6F7C"/>
<path transform="translate(1462,1007)" d="m0 0h9v2l-21 6-7-1-15-1v-1l14-3z" fill="#555862"/>
<path transform="translate(1567,950)" d="m0 0h2l2 57 1 7v14l6 4-1 4-2-1v-2l-4-1-2-4v-19l-1-11-1-30z" fill="#9EA0AC"/>
<path transform="translate(1573,1065)" d="m0 0 4 1-3 2-2 18v82h-1l-1-24v-70l2-8z" fill="#A0A2AE"/>
<path transform="translate(1498,998)" d="m0 0h15l16 1-1 2-58 1-16 1 4-2 17-2z" fill="#A2A4B0"/>
<path transform="translate(1392,934)" d="m0 0 17 7 17 5 12 2 8 3 5 5v5l-4-5-2-4-25-4-20-7-8-4z" fill="#9A9CA8"/>
<path transform="translate(1598,173)" d="m0 0 2 3 1 7 1 1 2-2-1 23-1 8v7h-2l-1-2v-22z" fill="#777986"/>
<path transform="translate(1340,666)" d="m0 0h2l-1 3-5 4-3 6h3l-12 11-8 7-1-3 8-11 7-6 7-8z" fill="#A7A8B4"/>
<path transform="translate(566,828)" d="m0 0 3 4 3 21 4 14 2 14 2 15v12h-1l-3-25-1-1-3-20-3-9-3-18z" fill="#8C8F9B"/>
<path transform="translate(1195,1311)" d="m0 0 7 1v4l-10 1h-4l-4 1-2-1v2l-8-1 1-6 10 1h6z" fill="#8B8E9A"/>
<path transform="translate(1579,74)" d="m0 0 1 3-1 19-5 10-1-3 1-26z" fill="#9E9FAB"/>
<path transform="translate(1595,1173)" d="m0 0 5 3 1 2 1 12h-3l-1-9-1-1-1 69h-1z" fill="#8C8F9B"/>
<path transform="translate(1603,93)" d="m0 0h2l1 5v29l-1 1h-5l-2 3v-7h4z" fill="#747683"/>
<path transform="translate(1354,653)" d="m0 0h3l-2 5-5 5-6 7h-2l-2 4-3 4-5 2 2-5 5-6 2-1 2-5 9-7z" fill="#7D7F8C"/>
<path transform="translate(1586,19)" d="m0 0h2v2h6v2l-12 2-1 16-1 5v20l-1 7h-1v-28l1-21-4-1z" fill="#595D67"/>
<path transform="translate(1597,277)" d="m0 0h1l1 21v48h-1l-1-20h-1v-35z" fill="#90939F"/>
<path transform="translate(878,1254)" d="m0 0 2 1-1 2 3 1v6l-4 3-5-1v-4h-2l-2-2-4-3 5-2 2 1z" fill="#8A8D99"/>
<path transform="translate(1613,62)" d="m0 0 9 2 3 3v2h-4v-2h-9l-7 3-8 6-1-3 5-5 5-4z" fill="#4C4F59"/>
<path transform="translate(1582,24)" d="m0 0h1v15l-2 33h-2v-26l1-7 1-14z" fill="#787A87"/>
<path transform="translate(1857,96)" d="m0 0 3 1 4 1v-2h5l2 3-1 3-6 1-1 3-3-2v-2h-4-2v2l-3-1 3-6z" fill="#61646F"/>
<path transform="translate(1466,300)" d="m0 0 2 4v4l8-3 6-4 2 1-5 5-7 5h-2v2l-3 2h-3l1-4 1-5z" fill="#A2A4B0"/>
<path transform="translate(1459,974)" d="m0 0h10l3 5 4 8-1 3-5-5-3-4-5-1h-5l4-2 6-1v-2l-7 1z" fill="#878995"/>
<path transform="translate(1594,127)" d="m0 0h2l1 24-4-4-2-8z" fill="#52555F"/>
<path transform="translate(1597,1310)" d="m0 0h2l-1 25 4 2 2 12h-2l-3-3h-1l-1-10z" fill="#90939F"/>
<path transform="translate(1594,1048)" d="m0 0 5 2 4 1 6 18h-3l-3-3-2-8v-5l-5 1z" fill="#4F525C"/>
<path transform="translate(1555,984)" d="m0 0h1v16h-25l1-2h21l1-13z" fill="#4A4D56"/>
<path transform="translate(1305,671)" d="m0 0h3l1 3-1 8-7 3v-2h-2l2-6 1-2h2z" fill="#595D67"/>
<path transform="translate(1593,927)" d="m0 0 3 3v12l-2 18-2 2v-15z" fill="#7E808D"/>
<path transform="translate(1624,79)" d="m0 0h2l-1 6-4 7h-2l-1 3h-2l-1 3h-2l-1-5-2-1 3-1 4-1 3-1 1-4z" fill="#4D5059"/>
<path transform="translate(1266,598)" d="m0 0h5l-2 6-5 2h-7l-2-1 1-2 5-2-3-2z" fill="#727481"/>
<path transform="translate(1316,563)" d="m0 0 2 1v6l-3 4-8 3-1-2 3-5 4-2z" fill="#70727F"/>
<path transform="translate(1596,43)" d="m0 0 2 4 1 5v14l-1 3 2 2-4 2z" fill="#848793"/>
<path transform="translate(1598,255)" d="m0 0 2 2-1 41h-1l-1-21v-21z" fill="#A9AAB6"/>
<path transform="translate(1489,970)" d="m0 0 9 2 16 5-4 2-7-1-9-3-5-2z" fill="#777985"/>
<path transform="translate(1599,25)" d="m0 0 3 4 3 5-3 12h-2l-1-7z" fill="#595D67"/>
<path transform="translate(628,1095)" d="m0 0 7 1h4v2l-15 3h-7l1-4 9-1z" fill="#4C4F58"/>
<path transform="translate(1418,1011)" d="m0 0h8v1h-5v2h12v1l-30 1-2-2z" fill="#A4A5B1"/>
<path transform="translate(1454,374)" d="m0 0 1 4-4 10-7 10-5 8-2-3 12-17z" fill="#9A9CA8"/>
<path transform="translate(1427,1010)" d="m0 0h11l-4 2 9 1 1 3-5 1v-2l-18-1v-2z" fill="#838491"/>
<path transform="translate(1596,355)" d="m0 0h2l1 23h-1l-1 11h-1z" fill="#8B8E9A"/>
<path transform="translate(1061,1253)" d="m0 0 3 1v4l-4 1v2l-5 1v-2h-3l1-5z" fill="#8A8D99"/>
<path transform="translate(1219,303)" d="m0 0 2 1v12l-1 2h-3l-1-7v-6z" fill="#A7A8B4"/>
<path transform="translate(1600,191)" d="m0 0h3v14l-1 8v7h-2l-1-2v-9l2-9 1-7h-2z" fill="#878996"/>
<path transform="translate(859,1248)" d="m0 0 4 2 1 3-8 1-1 7h-2v-2l-3-1 1-4 3 1v-2h2l2-4z" fill="#8A8D99"/>
<path transform="translate(615,808)" d="m0 0 12 1 7 2v3l-23-3z" fill="#A9AAB6"/>
<path transform="translate(545,454)" d="m0 0 1 4-3 5-6 2v-7z" fill="#4B4E58"/>
<path transform="translate(1586,19)" d="m0 0h2v2h6v2l-12 2-2 3-2-4-3-1z" fill="#5A5E68"/>
<path transform="translate(1595,1173)" d="m0 0 5 3 1 2 1 12h-3l-1-9-1-1-2 2z" fill="#90939F"/>
<path transform="translate(1426,947)" d="m0 0h9l11 4 5 5v5l-4-5-2-4-15-2v-2z" fill="#9FA1AD"/>
<path transform="translate(1598,181)" d="m0 0h1l1 25v14l2 1-4 1z" fill="#A2A3AF"/>
<path transform="translate(1402,960)" d="m0 0 7 1 17 4 10 5-2 1-12-5-17-3v-2z" fill="#9B9DA9"/>
<path transform="translate(1318,1334)" d="m0 0 8 5-4 2h-8l-2-5z" fill="#8B8E9A"/>
<path transform="translate(649,1089)" d="m0 0 3 1-1 5-10 3-2-4 8-2z" fill="#4B4E57"/>
<path transform="translate(581,470)" d="m0 0h6v6l-3 1-7-3 1-3z" fill="#8C8F9B"/>
<path transform="translate(1615,1098)" d="m0 0h2l-1 5-6 4-7-1v-4l8 1 3-2z" fill="#868995"/>
<path transform="translate(1074,1284)" d="m0 0h6v2l3 1-2 2-6 2h-3l1-6z" fill="#8C8F9B"/>
<path transform="translate(1327,634)" d="m0 0 2 2-1 15h-3v-11z" fill="#DBD9DF"/>
<path transform="translate(5,126)" d="m0 0 2 4h4l1 3-5 2-5-2v-5z" fill="#595D67"/>
<path transform="translate(1587,1048)" d="m0 0h2l7 7v5l-3 2-1-4-4-5z" fill="#52555E"/>
<path transform="translate(1599,47)" d="m0 0h1l2 21-4 2v-4-18z" fill="#A0A2AE"/>
<path transform="translate(1589,990)" d="m0 0h1l1 9-1 16-1 4h-2z" fill="#8E909C"/>
<path transform="translate(1213,1309)" d="m0 0 1 2 9 2v2l-7 1-4 1-3-2 2-5z" fill="#8C8F9B"/>
<path transform="translate(1603,1067)" d="m0 0 4 2 3 5-3 2h-5z" fill="#D7D6DC"/>
<path transform="translate(1570,1014)" d="m0 0h1l1 14 6 4-1 4-2-1v-2l-4-1-2-4v-8z" fill="#9B9DA9"/>
<path transform="translate(605,413)" d="m0 0 4 1-9 4-13 2 1-2z" fill="#595D67"/>
<path transform="translate(1033,1271)" d="m0 0 6 2 2-1v2l2 1-1 4-4 1-5-4z" fill="#8A8D99"/>
<path transform="translate(1601,1110)" d="m0 0h13l-4 4-6 1-4-3z" fill="#878A96"/>
<path transform="translate(667,1075)" d="m0 0h4v5l-2 1h-10l1-2h3v-2z" fill="#D8D6DD"/>
<path transform="translate(1864,96)" d="m0 0h5l2 3-1 3-5 1-4-4 1-2 2 1z" fill="#70727F"/>
<path transform="translate(1587,1027)" d="m0 0 2 4 4 3-6 1-1 10-2-1v-10l3-1z" fill="#6E717C"/>
<path transform="translate(1312,676)" d="m0 0 5 1-1 3 1 4-3 3-4-8z" fill="#5B5F69"/>
<path transform="translate(1594,910)" d="m0 0h1l1 9h1v9l-1 2-1 10h-1z" fill="#6B6E79"/>
<path transform="translate(1590,1056)" d="m0 0 4 4 3-2-1 11h-1v-5l-2 1-2 3z" fill="#5F626D"/>
<path transform="translate(1600,73)" d="m0 0 1 2 2 1h-2l-1 8-1-3-4 1v-5z" fill="#5B5F69"/>
<path transform="translate(1366,640)" d="m0 0 2 1-5 8-5 6-2-3z" fill="#9699A5"/>
<path transform="translate(1083,445)" d="m0 0h6v1l-6 2-4 2-9-1v-2z" fill="#6D707B"/>
<path transform="translate(1269,736)" d="m0 0 2 1-6 4-5 4h-6l3-3z" fill="#DBD9DF"/>
<path transform="translate(1575,143)" d="m0 0h1l1 10 6-3-1 5-6 3-1-6z" fill="#999BA7"/>
<path transform="translate(1582,24)" d="m0 0h1v15l-2 2-1-2 1-14z" fill="#7E808C"/>
<path transform="translate(1018,1271)" d="m0 0h7l2 4-6 2-5-2z" fill="#898C98"/>
<path transform="translate(1530,998)" d="m0 0 1 2h15v2h-17z" fill="#80838F"/>
<path transform="translate(578,882)" d="m0 0h2l1 3v18h-1l-2-16z" fill="#A9AAB6"/>
<path transform="translate(1573,1065)" d="m0 0 4 1-3 2-1 8-1 1-1 7h-1v-10l2-8z" fill="#9698A4"/>
<path transform="translate(500,798)" d="m0 0 7 2v3l-6 1-3-3z" fill="#5F626D"/>
<path transform="translate(1596,108)" d="m0 0h4l-1 14-2 2-1-5z" fill="#6D707B"/>
<path transform="translate(1601,1043)" d="m0 0 7 1v3h-4l2 4v3h-3z" fill="#999BA7"/>
<path transform="translate(1561,373)" d="m0 0 2 4-1 14h-1v-7l-2-1 1-8z" fill="#70727F"/>
<path transform="translate(1056,1271)" d="m0 0 4 1-1 3h-2l-1 3-6-2 1-2h2v-2z" fill="#8A8D99"/>
<path transform="translate(1611,125)" d="m0 0h5l1 3h2l1 8h-2l-4-9h-3z" fill="#50545D"/>
<path transform="translate(1522,974)" d="m0 0 6 1 6 2-5 4-4-1h2v-2l-5-3z" fill="#90939F"/>
<path transform="translate(543,443)" d="m0 0h2l1 6h-6l-1-4z" fill="#4C4F58"/>
<path transform="translate(549,433)" d="m0 0h3l-1 5-2 2h-3v-6z" fill="#4A4D56"/>
<path transform="translate(2046,35)" d="m0 0 2 1v5l-7-1-1-3 4-1 2 1z" fill="#595D67"/>
<path transform="translate(1609,1081)" d="m0 0h6l2 4v2l-4-1-2-1v-2h-2z" fill="#9496A2"/>
<path transform="translate(1509,378)" d="m0 0h1l1 7-3 10h-1v-12z" fill="#5B5F6A"/>
<path transform="translate(1617,1354)" d="m0 0 2 1-5 10h-4l2-4z" fill="#8C8F9B"/>
<path transform="translate(1480,966)" d="m0 0 11 3-2 1v2l-6-1-3-3z" fill="#90939F"/>
<path transform="translate(781,384)" d="m0 0 3 4v8l-2 2-1-3z" fill="#A9AAB6"/>
<path transform="translate(84,36)" d="m0 0h3v2h2v2h2l-2 4v-2l-3 1-1-4-2-1z" fill="#70727F"/>
<path transform="translate(1469,979)" d="m0 0 2 1v2l3 1 2 4-1 3-5-5z" fill="#686B77"/>
<path transform="translate(1599,193)" d="m0 0h3l-1 14-2 2z" fill="#70727F"/>
<path transform="translate(644,1080)" d="m0 0h7l-3 5-5-1z" fill="#9B9DA9"/>
<path transform="translate(1487,556)" d="m0 0 4 2h-2v6h-3l-2-5 3 1z" fill="#91939F"/>
<path transform="translate(2,139)" d="m0 0 3 1-2 7h-3v-7z" fill="#595D67"/>
<path transform="translate(1078,1048)" d="m0 0 3 2-5 3h-5l-1-4h6z" fill="#8C8F9B"/>
<path transform="translate(1301,582)" d="m0 0 3 1-8 5h-5l1-2z" fill="#A5A7B3"/>
<path transform="translate(1177,434)" d="m0 0h4l1 9-5-5z" fill="#4A4D56"/>
<path transform="translate(1268,345)" d="m0 0h2l2 5-1 4-3-3-1-5z" fill="#8F929E"/>
<path transform="translate(1593,1064)" d="m0 0h2v6l-3 4-1-6z" fill="#4C4F58"/>
<path transform="translate(1887,117)" d="m0 0 5 1-2 4-4 2-1-2z" fill="#686A76"/>
</svg>
