<?xml version="1.0" standalone="no"?>
<!DOCTYPE svg PUBLIC "-//W3C//DTD SVG 20010904//EN"
 "http://www.w3.org/TR/2001/REC-SVG-20010904/DTD/svg10.dtd">
<svg version="1.0" xmlns="http://www.w3.org/2000/svg"
 width="888.000000pt" height="1290.000000pt" viewBox="0 0 888.000000 1290.000000"
 preserveAspectRatio="xMidYMid meet">

<g transform="translate(0.000000,1290.000000) scale(0.100000,-0.100000)"
fill="#000000" stroke="none">
<path d="M0 6450 l0 -6450 4440 0 4440 0 0 6450 0 6450 -4440 0 -4440 0 0
-6450z m8191 6173 c79 -39 140 -102 177 -181 l27 -57 0 -2095 c0 -1152 -2
-1926 -5 -1720 -5 349 -6 375 -22 372 -16 -2 -380 -131 -908 -321 -91 -33
-307 -110 -480 -171 -314 -112 -392 -147 -300 -134 25 3 70 1 100 -6 30 -6 73
-13 94 -15 22 -2 42 -9 46 -15 4 -6 24 -9 46 -7 21 3 29 2 17 0 -13 -2 -23 -8
-23 -13 0 -12 -507 -13 -515 0 -3 5 -12 10 -18 10 -8 0 -8 -3 1 -9 9 -5 -5 -9
-38 -10 l-53 -1 6 60 c3 34 1 58 -4 54 -5 -3 -10 209 -11 508 l-3 513 -1879 3
c-1034 1 -1883 -1 -1887 -5 -4 -5 -11 -251 -15 -548 -4 -297 -9 -533 -11 -524
-3 11 -13 15 -36 13 -18 -2 -25 -1 -17 2 13 4 15 41 12 272 -1 147 -4 278 -6
292 -2 14 -4 -105 -5 -263 0 -189 -4 -286 -11 -282 -5 3 -10 1 -10 -4 0 -6 -9
-11 -21 -11 -11 0 -18 4 -15 9 3 5 -18 12 -46 16 -29 3 -75 12 -103 20 -27 7
-63 16 -80 20 l-30 8 25 7 c24 6 24 7 -7 11 -18 3 -30 2 -27 -3 3 -4 -4 -8
-16 -8 -12 0 -18 4 -15 10 4 7 -6 10 -27 10 -18 -1 -49 3 -68 8 l-35 10 45 2
45 3 -46 6 c-26 4 -54 13 -63 20 -8 7 -21 11 -28 9 -8 -3 -1 -12 17 -22 27
-16 28 -17 5 -12 -14 3 -31 6 -37 6 -7 0 -13 7 -13 15 0 11 -8 13 -32 8 -21
-4 -29 -3 -24 5 4 7 -4 9 -23 6 -20 -3 -30 0 -35 12 -4 11 -14 14 -29 11 -12
-3 -40 -2 -62 3 -22 4 -32 8 -22 9 9 0 17 6 17 12 0 6 -15 8 -44 4 -28 -5 -46
-3 -50 4 -5 7 2 11 18 11 14 0 26 4 26 10 0 5 -15 9 -34 7 -19 -1 -32 -7 -29
-13 2 -7 -7 -9 -27 -6 -16 2 -30 9 -30 14 0 5 -9 6 -20 3 -11 -3 -20 -2 -20 3
0 6 -23 13 -52 17 -29 4 -77 16 -107 26 -30 10 -59 15 -64 12 -4 -3 -17 3 -27
12 -13 12 -27 15 -45 11 -15 -4 -24 -3 -21 2 3 5 -18 13 -46 16 -29 4 -57 11
-63 15 -5 5 -23 11 -40 14 -106 21 -102 20 -75 29 19 6 14 7 -18 4 -28 -3 -56
2 -82 15 -22 11 -46 19 -53 18 -26 -3 -63 2 -77 11 -25 16 -7 19 32 5 23 -7
38 -9 38 -3 0 6 16 7 40 3 56 -9 52 12 -4 27 -25 6 -43 15 -40 20 3 4 -4 8
-15 8 -12 0 -21 -6 -21 -13 0 -11 -63 -37 -90 -37 -17 0 -11 18 8 23 9 2 6 2
-8 0 -41 -7 -74 -5 -78 5 -1 5 -14 7 -27 4 -22 -4 -25 -1 -26 24 -1 17 -3 22
-6 12 -2 -10 -9 -18 -14 -18 -12 0 -11 291 1 310 7 10 10 -28 9 -122 -1 -76 2
-138 5 -138 26 0 31 2 19 7 -18 7 -18 243 -1 243 6 0 3 9 -7 20 -39 43 -45 29
-46 -122 -1 -79 -5 -291 -9 -473 -3 -181 -6 604 -6 1745 l1 2075 26 56 c47
100 130 172 232 205 34 10 697 12 3712 11 l3670 -2 66 -32z m-2018 -3349 l37
-7 0 -2398 0 -2399 -1770 0 -1770 0 0 2399 c0 1910 3 2400 13 2404 18 8 3445
8 3490 1z m-5373 -474 c0 -5 -7 -10 -15 -10 -8 0 -15 5 -15 10 0 6 7 10 15 10
8 0 15 -4 15 -10z m6287 -544 c1 -1 -17 -2 -40 -3 -23 0 -34 2 -24 4 9 3 17 9
17 14 0 8 29 -2 47 -15z m96 -3 c-13 -2 -35 -2 -50 0 -16 2 -5 4 22 4 28 0 40
-2 28 -4z m1196 -7766 c-35 -108 -127 -198 -239 -231 -49 -15 -382 -16 -3700
-16 -3318 0 -3651 1 -3700 16 -110 33 -203 122 -238 229 l-22 65 0 2260 0
2260 1035 0 1035 0 2 -357 3 -358 1885 0 1885 0 3 358 2 357 1030 0 1030 0 2
1348 c2 741 4 -275 6 -2258 l2 -3605 -21 -68z m-7892 6141 c-1 -189 -2 -37 -2
337 0 374 1 528 2 343 2 -185 2 -491 0 -680z m0 -425 c-2 -16 -4 -5 -4 22 0
28 2 40 4 28 2 -13 2 -35 0 -50z m0 -140 c-2 -21 -4 -6 -4 32 0 39 2 55 4 38
2 -18 2 -50 0 -70z m0 -135 c-2 -18 -4 -4 -4 32 0 36 2 50 4 33 2 -18 2 -48 0
-65z m0 -180 c-2 -18 -4 -4 -4 32 0 36 2 50 4 33 2 -18 2 -48 0 -65z m0 -95
c-3 -10 -5 -2 -5 17 0 19 2 27 5 18 2 -10 2 -26 0 -35z m0 -280 c-3 -10 -5 -4
-5 12 0 17 2 24 5 18 2 -7 2 -21 0 -30z m0 -65 c-3 -8 -6 -5 -6 6 -1 11 2 17
5 13 3 -3 4 -12 1 -19z"/>
<path d="M3220 11566 c-117 -32 -211 -129 -241 -249 l-12 -48 -56 6 c-110 12
-236 -49 -300 -147 -87 -132 -70 -290 43 -401 53 -52 67 -63 94 -71 l22 -7
-21 -41 c-80 -156 -9 -353 156 -433 114 -56 245 -39 348 47 l47 39 46 -40
c191 -168 478 -65 534 190 13 60 3 132 -26 191 -20 39 -18 43 31 73 101 59
161 175 153 299 -12 185 -180 324 -363 301 -53 -6 -55 -6 -55 18 0 70 -67 181
-136 224 -54 35 -141 63 -188 62 -17 0 -51 -6 -76 -13z m213 -45 c93 -45 151
-128 163 -234 7 -55 7 -57 33 -49 14 4 60 7 101 7 61 -1 85 -6 126 -27 60 -31
109 -84 137 -147 30 -66 29 -180 -1 -244 -28 -59 -102 -132 -150 -148 -54 -17
-54 -18 -33 -47 108 -153 27 -398 -149 -451 -53 -16 -160 -14 -210 4 -50 18
-111 64 -129 98 l-14 26 -46 -48 c-70 -71 -108 -86 -221 -86 -91 0 -99 2 -150
33 -90 55 -150 156 -150 254 0 51 21 127 46 163 22 33 22 36 6 42 -122 41
-197 133 -209 256 -8 98 16 165 85 236 70 71 139 97 236 88 33 -3 68 -8 77
-11 13 -6 17 3 23 51 4 31 17 77 29 101 29 58 103 124 164 145 66 23 175 18
236 -12z"/>
<path d="M3160 11125 l0 -145 -150 0 -151 0 3 -142 3 -143 148 -3 147 -3 0
-144 0 -145 140 0 140 0 0 145 0 145 145 0 145 0 0 145 0 145 -145 0 -145 0 0
145 0 145 -140 0 -140 0 0 -145z"/>
<path d="M4320 11405 l0 -175 40 0 40 0 0 69 0 68 49 5 c63 6 83 26 89 89 9
92 -24 119 -143 119 l-75 0 0 -175z m131 115 c13 -7 19 -21 19 -44 0 -39 -19
-59 -52 -54 -19 2 -24 10 -26 42 -5 64 12 81 59 56z"/>
<path d="M4850 11405 l0 -175 35 0 35 0 0 175 0 175 -35 0 -35 0 0 -175z"/>
<path d="M4643 11490 c-23 -10 -43 -39 -43 -64 0 -25 57 -21 65 4 4 13 15 20
31 20 22 0 25 -4 22 -27 -2 -22 -11 -29 -53 -42 -73 -23 -96 -81 -54 -135 24
-30 63 -34 97 -10 12 8 22 10 22 5 0 -6 15 -11 33 -11 l32 0 -3 102 c-1 57 -4
112 -7 124 -8 37 -87 56 -142 34z m84 -156 c3 -8 0 -27 -6 -40 -15 -34 -54
-30 -59 5 -6 40 51 70 65 35z"/>
<path d="M5014 11488 c-20 -9 -44 -47 -44 -68 0 -6 14 -10 31 -10 22 0 32 5
36 20 7 25 48 27 57 4 9 -24 -8 -40 -59 -54 -56 -16 -66 -28 -67 -81 -1 -68
56 -101 110 -63 12 8 22 10 22 5 0 -6 16 -11 36 -11 29 0 35 3 30 16 -3 9 -6
60 -6 115 0 86 -3 102 -20 119 -22 22 -89 27 -126 8z m75 -204 c-20 -24 -54
-13 -57 19 -3 23 2 30 30 41 33 14 33 14 36 -15 2 -17 -2 -37 -9 -45z"/>
<path d="M5315 11490 c-3 -5 -25 -7 -50 -3 l-45 6 0 -132 0 -131 35 0 35 0 0
99 c0 103 10 128 44 115 13 -5 16 -23 16 -110 l0 -104 35 0 35 0 0 115 c0 102
-2 117 -20 135 -21 21 -74 27 -85 10z"/>
<path d="M5499 11474 c-21 -23 -24 -35 -24 -109 0 -74 3 -86 24 -109 28 -30
66 -34 93 -9 17 15 18 15 18 -10 0 -24 -22 -57 -39 -57 -5 0 -14 7 -21 15 -14
17 -80 21 -80 5 0 -6 11 -22 25 -35 34 -35 112 -35 152 -1 l28 24 3 151 3 151
-36 0 c-19 0 -35 -5 -35 -11 0 -6 -7 -3 -16 5 -24 24 -67 20 -95 -10z m101
-50 c29 -74 -4 -168 -46 -133 -18 14 -19 130 -2 147 19 19 38 14 48 -14z"/>
<path d="M4320 10835 l0 -175 35 0 35 0 1 128 c1 137 2 136 39 -30 21 -97 22
-98 51 -98 16 0 29 3 29 8 1 4 14 63 30 132 l29 125 0 -133 1 -133 33 3 32 3
3 173 2 172 -54 0 c-34 0 -56 -5 -59 -13 -2 -6 -13 -56 -23 -109 -11 -54 -22
-98 -25 -98 -4 0 -9 19 -13 43 -4 23 -14 72 -22 110 l-16 67 -54 0 -54 0 0
-175z"/>
<path d="M5350 10835 l0 -175 35 0 35 0 0 98 c0 101 7 122 42 122 16 0 18 -10
18 -94 0 -115 4 -126 41 -126 l29 0 0 119 c0 95 -3 123 -16 135 -18 19 -85 21
-102 4 -9 -9 -12 0 -12 40 l0 52 -35 0 -35 0 0 -175z"/>
<path d="M4706 10899 c-23 -26 -26 -40 -26 -100 0 -73 17 -122 45 -133 37 -14
105 -6 125 14 11 11 20 24 20 29 0 5 3 16 6 25 5 13 -1 16 -30 16 -24 0 -36
-5 -36 -14 0 -7 -7 -19 -15 -26 -21 -18 -45 4 -45 41 l0 29 66 0 66 0 -4 57
c-6 71 -29 93 -98 93 -42 0 -52 -4 -74 -31z m102 -47 c3 -30 1 -32 -27 -32
-26 0 -31 4 -31 23 0 54 53 62 58 9z"/>
<path d="M4927 10923 c-4 -3 -7 -64 -7 -135 l0 -128 35 0 35 0 0 88 c0 73 3
92 18 105 10 10 26 17 35 17 12 0 17 9 17 30 0 23 -5 30 -19 30 -11 0 -27 -7
-35 -16 -15 -14 -16 -14 -16 0 0 16 -49 23 -63 9z"/>
<path d="M5135 10905 c-14 -13 -25 -31 -25 -40 0 -22 52 -19 73 5 21 25 47 16
47 -16 0 -20 -7 -26 -44 -35 -25 -6 -53 -20 -63 -31 -20 -23 -22 -90 -3 -113
15 -18 91 -20 108 -3 9 9 12 9 12 0 0 -7 14 -12 33 -12 l32 0 -3 117 c-4 140
-12 153 -94 153 -39 0 -54 -5 -73 -25z m105 -144 c0 -34 -25 -63 -49 -59 -27
5 -21 60 9 75 36 18 40 16 40 -16z"/>
<path d="M4320 10316 l0 -176 40 0 40 0 -2 173 -3 172 -37 3 -38 3 0 -175z"/>
<path d="M4848 10458 c-1 -18 -2 -41 -1 -51 0 -13 -5 -16 -16 -11 -38 16 -68
15 -91 -4 -23 -18 -25 -28 -28 -116 -4 -91 -3 -96 22 -121 27 -27 73 -34 94
-13 8 8 15 9 22 2 6 -6 24 -8 40 -6 l30 4 -2 172 -3 171 -32 3 c-31 3 -33 1
-35 -30z m-20 -110 c18 -22 24 -83 12 -127 -9 -35 -15 -42 -33 -39 -17 2 -23
12 -29 43 -11 62 6 135 32 135 4 0 12 -6 18 -12z"/>
<path d="M6000 10460 c0 -28 3 -30 35 -30 32 0 35 2 35 30 0 28 -3 30 -35 30
-32 0 -35 -2 -35 -30z"/>
<path d="M4543 10395 c-14 -10 -24 -12 -28 -5 -3 5 -19 10 -36 10 l-29 0 0
-130 0 -130 35 0 34 0 3 103 3 102 28 3 27 3 0 -105 0 -106 35 0 35 0 0 115
c0 102 -2 117 -20 135 -24 24 -57 26 -87 5z"/>
<path d="M5019 10395 c-38 -21 -52 -63 -47 -145 3 -54 8 -75 25 -91 28 -29
104 -37 137 -15 44 28 60 142 31 211 -21 53 -89 71 -146 40z m79 -47 c12 -12
17 -124 6 -152 -3 -9 -16 -16 -29 -16 -29 0 -35 16 -35 90 0 32 3 65 6 74 7
19 35 21 52 4z"/>
<path d="M5322 10394 c-12 -8 -22 -10 -22 -5 0 6 -16 11 -35 11 l-35 0 0 -130
0 -130 35 0 34 0 3 103 c3 99 4 102 27 105 34 5 41 -12 41 -115 l0 -93 35 0
35 0 0 109 c0 94 -3 112 -21 135 -24 30 -63 34 -97 10z"/>
<path d="M5541 10396 c-36 -20 -50 -55 -51 -124 0 -96 31 -142 97 -142 49 0
73 12 88 41 23 44 19 59 -15 59 -23 0 -31 -5 -36 -25 -4 -18 -13 -25 -29 -25
-24 0 -35 17 -35 56 0 23 3 24 65 24 l65 0 0 46 c0 82 -78 130 -149 90z m77
-48 c7 -7 12 -20 12 -30 0 -14 -8 -18 -35 -18 -36 0 -42 10 -29 44 7 19 35 21
52 4z"/>
<path d="M5792 10394 c-36 -19 -50 -53 -36 -93 9 -24 24 -35 89 -63 40 -18 41
-52 2 -56 -22 -3 -30 1 -34 17 -4 15 -13 21 -34 21 -23 0 -29 -4 -29 -22 0
-44 35 -68 99 -68 55 0 95 35 95 83 0 46 -15 62 -75 82 -42 14 -50 21 -47 38
4 30 44 35 53 8 9 -29 65 -30 65 -2 0 56 -84 87 -148 55z"/>
<path d="M6177 10403 c-17 -4 -47 -51 -47 -73 0 -19 59 -11 70 10 6 11 20 20
31 20 16 0 20 -5 17 -26 -2 -20 -14 -30 -57 -47 -41 -17 -57 -29 -64 -50 -11
-33 -3 -69 19 -91 16 -17 79 -22 88 -7 3 5 25 6 48 4 l43 -5 -3 103 c-1 57 -5
113 -7 125 -8 35 -75 53 -138 37z m83 -172 c0 -52 -61 -72 -68 -21 -4 26 20
50 50 50 13 0 18 -8 18 -29z"/>
<path d="M6000 10270 l0 -130 35 0 35 0 0 130 0 130 -35 0 -35 0 0 -130z"/>
<path d="M573 9163 c9 -2 23 -2 30 0 6 3 -1 5 -18 5 -16 0 -22 -2 -12 -5z"/>
<path d="M665 9150 c3 -6 1 -10 -6 -10 -7 0 -10 -3 -6 -6 3 -3 13 -2 22 4 16
8 16 9 1 15 -10 4 -15 3 -11 -3z"/>
<path d="M603 9143 c9 -2 23 -2 30 0 6 3 -1 5 -18 5 -16 0 -22 -2 -12 -5z"/>
<path d="M802 9104 c1 -16 9 -30 16 -30 6 -1 17 -2 23 -3 5 0 8 -5 5 -9 -2 -4
6 -8 19 -8 13 0 22 3 19 7 -2 4 8 10 23 12 18 2 10 5 -19 6 -29 0 -47 5 -45
12 1 6 -9 18 -21 27 -23 15 -24 15 -20 -14z"/>
<path d="M880 9118 c0 -5 18 -8 40 -8 22 0 40 2 40 4 0 2 -18 6 -40 8 -22 2
-40 0 -40 -4z"/>
<path d="M625 9110 c-4 -6 -11 -8 -16 -5 -5 3 -6 -1 -3 -9 9 -23 34 -20 34 4
0 22 -5 26 -15 10z"/>
<path d="M1020 9100 c16 -5 -7 -7 -60 -5 -72 3 -77 3 -35 -5 28 -4 70 -9 94
-9 38 -1 42 1 31 14 -7 8 -22 15 -34 14 -19 -1 -19 -2 4 -9z"/>
<path d="M1080 9086 c0 -8 -10 -17 -22 -19 -13 -2 1 -4 30 -3 42 0 49 2 33 10
-12 5 -21 13 -21 18 0 4 -4 8 -10 8 -5 0 -10 -6 -10 -14z"/>
<path d="M1154 9072 c5 -8 66 -4 66 4 0 2 -16 4 -36 4 -19 0 -33 -4 -30 -8z"/>
<path d="M621 8988 c0 -49 2 -88 7 -88 4 0 6 28 4 62 -5 107 -9 117 -11 26z"/>
<path d="M940 9061 c0 -5 9 -7 20 -4 11 3 20 7 20 9 0 2 -9 4 -20 4 -11 0 -20
-4 -20 -9z"/>
<path d="M1263 9063 c15 -2 37 -2 50 0 12 2 0 4 -28 4 -27 0 -38 -2 -22 -4z"/>
<path d="M583 8980 c0 -41 2 -58 4 -37 2 20 2 54 0 75 -2 20 -4 3 -4 -38z"/>
<path d="M1360 9025 c0 -18 5 -25 19 -25 31 0 33 16 6 34 -24 16 -25 16 -25
-9z"/>
<path d="M1440 9020 c0 -21 14 -27 24 -11 4 5 0 12 -6 15 -7 3 6 4 29 4 23 -1
46 1 49 5 4 4 -16 7 -44 7 -45 0 -52 -3 -52 -20z"/>
<path d="M1588 9023 c-10 -2 -18 -8 -18 -12 0 -11 85 -34 102 -29 7 3 -6 8
-30 13 -31 5 -42 11 -38 21 3 8 4 13 3 13 -1 -1 -10 -3 -19 -6z"/>
<path d="M1490 8999 l-35 -19 33 0 c20 0 31 4 27 10 -3 6 3 10 15 10 12 0 18
5 15 10 -8 13 -14 12 -55 -11z"/>
<path d="M1655 9010 c30 -8 122 -13 114 -6 -2 2 -35 6 -74 9 -42 3 -58 2 -40
-3z"/>
<path d="M1776 8991 c-13 -5 -16 -10 -9 -14 7 -4 15 -3 18 3 4 7 31 8 73 4 37
-4 65 -4 62 -2 -9 10 -125 17 -144 9z"/>
<path d="M1548 8983 c6 -2 18 -2 25 0 6 3 1 5 -13 5 -14 0 -19 -2 -12 -5z"/>
<path d="M1728 8983 c7 -3 16 -2 19 1 4 3 -2 6 -13 5 -11 0 -14 -3 -6 -6z"/>
<path d="M1882 8954 c-12 -8 -27 -12 -32 -9 -6 3 -10 -1 -10 -10 0 -14 8 -16
40 -12 50 5 58 13 39 32 -13 13 -17 13 -37 -1z"/>
<path d="M2060 8951 l25 -9 -25 -2 c-14 -1 -19 -4 -12 -7 14 -5 106 6 100 12
-2 3 -29 7 -59 9 -38 4 -46 3 -29 -3z"/>
<path d="M2008 8943 c7 -3 16 -2 19 1 4 3 -2 6 -13 5 -11 0 -14 -3 -6 -6z"/>
<path d="M2168 8943 c7 -3 16 -2 19 1 4 3 -2 6 -13 5 -11 0 -14 -3 -6 -6z"/>
<path d="M1435 8930 c-8 -13 55 -13 75 0 11 7 4 10 -27 10 -23 0 -45 -4 -48
-10z"/>
<path d="M1665 8930 c3 -5 10 -10 16 -10 5 0 9 5 9 10 0 6 -7 10 -16 10 -8 0
-12 -4 -9 -10z"/>
<path d="M2210 8930 c0 -5 19 -10 43 -10 31 0 38 3 27 10 -20 13 -70 13 -70 0z"/>
<path d="M1948 8923 c6 -2 18 -2 25 0 6 3 1 5 -13 5 -14 0 -19 -2 -12 -5z"/>
<path d="M2140 8922 c23 -4 24 -5 5 -13 -18 -7 -18 -8 5 -8 14 0 37 -2 53 -5
15 -2 27 0 27 5 0 5 -15 9 -32 9 -25 0 -29 3 -18 10 11 7 4 9 -25 8 -28 0 -33
-2 -15 -6z"/>
<path d="M2328 8923 c7 -3 16 -2 19 1 4 3 -2 6 -13 5 -11 0 -14 -3 -6 -6z"/>
<path d="M2018 8913 c12 -2 30 -2 40 0 9 3 -1 5 -23 4 -22 0 -30 -2 -17 -4z"/>
<path d="M2390 8910 c-8 -5 -10 -10 -5 -10 6 0 17 5 25 10 8 5 11 10 5 10 -5
0 -17 -5 -25 -10z"/>
<path d="M2273 8903 c9 -2 25 -2 35 0 9 3 1 5 -18 5 -19 0 -27 -2 -17 -5z"/>
<path d="M2438 8903 c7 -3 16 -2 19 1 4 3 -2 6 -13 5 -11 0 -14 -3 -6 -6z"/>
<path d="M720 8891 c0 -10 26 -9 36 2 4 4 -2 7 -14 7 -12 0 -22 -4 -22 -9z"/>
<path d="M2524 8620 c0 -157 2 -221 3 -142 2 78 2 206 0 285 -1 78 -3 14 -3
-143z"/>
<path d="M1015 8731 c-26 -6 -23 -8 25 -13 30 -3 62 -2 70 3 11 6 8 8 -12 9
-14 0 -32 2 -40 4 -7 2 -26 0 -43 -3z"/>
<path d="M1218 8693 c12 -2 30 -2 40 0 9 3 -1 5 -23 4 -22 0 -30 -2 -17 -4z"/>
<path d="M1340 8671 c0 -5 6 -12 13 -15 6 -3 0 -3 -14 0 -45 9 -41 -13 4 -24
79 -20 97 -22 97 -12 0 5 -11 10 -24 10 -30 0 -42 16 -26 35 11 13 7 15 -19
15 -17 0 -31 -4 -31 -9z"/>
<path d="M1700 8570 c0 -5 14 -10 32 -10 36 0 35 4 -4 14 -17 4 -28 2 -28 -4z"/>
<path d="M1820 8547 c0 -5 21 -7 47 -6 30 2 48 -1 51 -9 2 -7 9 -12 15 -12 6
0 3 8 -6 18 -18 18 -107 26 -107 9z"/>
<path d="M1730 8530 c19 -13 30 -13 30 0 0 6 -10 10 -22 10 -19 0 -20 -2 -8
-10z"/>
<path d="M1980 8510 c0 -5 9 -10 21 -10 11 0 17 5 14 10 -3 6 -13 10 -21 10
-8 0 -14 -4 -14 -10z"/>
<path d="M2035 8480 c28 -12 45 -12 45 0 0 6 -15 10 -32 9 -28 0 -30 -2 -13
-9z"/>
<path d="M2265 8406 c-18 -13 -18 -14 1 -20 34 -11 134 -14 134 -5 0 5 -20 9
-44 9 -44 0 -68 13 -44 23 7 3 4 6 -8 6 -11 1 -29 -5 -39 -13z"/>
<path d="M2363 8413 c9 -2 23 -2 30 0 6 3 -1 5 -18 5 -16 0 -22 -2 -12 -5z"/>
<path d="M2425 8410 c-3 -5 -1 -10 4 -10 6 0 11 5 11 10 0 6 -2 10 -4 10 -3 0
-8 -4 -11 -10z"/>
<path d="M6356 8348 c-3 -13 -5 -39 -5 -58 1 -27 3 -22 9 20 9 58 7 77 -4 38z"/>
<path d="M6390 8320 c0 -22 0 -42 0 -45 0 -3 3 -4 7 -2 4 1 6 17 4 35 -2 30 0
33 21 32 40 -4 54 2 28 10 -52 17 -60 13 -60 -30z"/>
<path d="M6685 8300 c-7 -12 19 -12 55 0 22 7 21 8 -12 9 -20 1 -40 -3 -43 -9z"/>
<path d="M6500 8291 c0 -5 -10 -12 -22 -14 -13 -3 1 -4 29 -3 29 0 53 4 53 8
0 3 8 9 18 11 9 3 -4 5 -30 6 -27 0 -48 -3 -48 -8z"/>
<path d="M6770 8287 c0 -10 10 -12 32 -9 28 4 30 6 13 13 -30 12 -45 10 -45
-4z"/>
<path d="M6640 8280 c0 -5 4 -10 9 -10 6 0 13 5 16 10 3 6 -1 10 -9 10 -9 0
-16 -4 -16 -10z"/>
<path d="M6728 8273 c6 -2 18 -2 25 0 6 3 1 5 -13 5 -14 0 -19 -2 -12 -5z"/>
<path d="M6818 8263 c12 -2 30 -2 40 0 9 3 -1 5 -23 4 -22 0 -30 -2 -17 -4z"/>
</g>
</svg>
